<?xml version="1.0" standalone="no"?>
<!DOCTYPE svg PUBLIC "-//W3C//DTD SVG 20010904//EN"
 "http://www.w3.org/TR/2001/REC-SVG-20010904/DTD/svg10.dtd">
<svg version="1.0" xmlns="http://www.w3.org/2000/svg"
 width="453.000000pt" height="453.000000pt" viewBox="0 0 453.000000 453.000000"
 preserveAspectRatio="xMidYMid meet">
<metadata>
Created by potrace 1.13, written by Peter Selinger 2001-2015
</metadata>
<g transform="translate(0.000000,453.000000) scale(0.100000,-0.100000)"
fill="#000000" stroke="none">
<path d="M3465 4515 c-38 -9 -117 -38 -174 -66 -91 -45 -115 -63 -205 -152
-140 -139 -201 -236 -422 -668 -102 -200 -204 -400 -227 -443 l-42 -79 -591 6
c-615 7 -722 3 -916 -33 -436 -82 -711 -315 -858 -725 -31 -88 -32 -92 -27
-220 15 -361 154 -542 483 -633 l99 -27 928 -3 c510 -1 927 -6 926 -10 0 -4
-170 -331 -378 -727 l-378 -720 31 -9 c17 -4 72 -6 121 -3 185 10 339 87 496
247 150 153 196 232 716 1228 l85 162 279 0 279 0 0 23 c0 23 -3 24 -107 30
-58 4 -177 7 -263 7 l-158 0 170 322 c94 178 194 373 223 434 63 134 111 209
173 276 81 87 86 88 360 88 l238 0 29 30 29 30 -576 0 -575 0 -34 -23 c-26
-17 -59 -72 -157 -257 -228 -434 -474 -890 -482 -895 -5 -3 -41 -8 -82 -11
-69 -6 -74 -5 -97 19 -19 21 -23 34 -19 64 3 22 69 157 161 328 85 160 225
425 310 590 l155 300 734 3 733 2 38 55 38 55 -738 2 -739 3 243 465 c348 666
479 927 471 935 -15 15 -232 15 -303 0z m-1233 -1717 c-61 -117 -144 -276
-185 -353 l-75 -140 -85 1 c-68 2 -97 7 -141 27 -74 34 -149 107 -183 176 -37
74 -39 181 -6 253 42 92 158 192 267 230 43 15 88 17 284 18 l234 0 -110 -212z
m-312 -584 c0 -3 -20 -43 -44 -89 -53 -101 -70 -174 -63 -276 6 -86 30 -143
77 -183 l32 -26 304 0 c167 0 304 -3 304 -7 0 -5 -9 -23 -20 -40 l-20 -33
-543 0 c-326 0 -566 4 -598 10 -117 22 -230 106 -265 195 -22 58 -15 146 17
212 30 62 121 154 187 187 96 49 139 55 395 55 130 1 237 -2 237 -5z"/>
</g>
</svg>
